<svg width="285" height="47" viewBox="0 0 285 47" fill="none" xmlns="http://www.w3.org/2000/svg">
<path d="M99.262 3.34149L89.4385 42.6893H80.7185L70.9757 3.34149H78.8614L83.5982 25.5453C83.7777 26.3707 83.9661 27.3395 84.1634 28.452C84.3608 29.5465 84.5402 30.641 84.7017 31.7355C84.8632 32.812 84.9888 33.745 85.0785 34.5345C85.1861 33.745 85.3207 32.812 85.4822 31.7355C85.6616 30.641 85.85 29.5465 86.0474 28.452C86.2627 27.3575 86.4601 26.3886 86.6395 25.5453L91.4301 3.34149H99.262Z" fill="white"/>
<path d="M129.594 22.9616C129.594 26.0836 129.307 28.9005 128.733 31.4125C128.158 33.9065 127.297 36.0327 126.149 37.791C125 39.5494 123.547 40.8951 121.789 41.8281C120.048 42.7611 118.003 43.2276 115.652 43.2276C113.284 43.2276 111.221 42.7611 109.462 41.8281C107.704 40.8771 106.251 39.5135 105.102 37.7372C103.954 35.9609 103.093 33.8258 102.519 31.3317C101.944 28.8377 101.657 26.0297 101.657 22.9078C101.657 18.4939 102.187 14.7888 103.245 11.7924C104.304 8.796 105.874 6.53525 107.955 5.01014C110.036 3.48503 112.602 2.72248 115.652 2.72248C118.828 2.72248 121.439 3.53886 123.484 5.17162C125.548 6.80439 127.082 9.13691 128.087 12.1692C129.091 15.1835 129.594 18.781 129.594 22.9616ZM109.489 22.9616C109.489 25.9759 109.722 28.4968 110.189 30.5243C110.655 32.5339 111.346 34.05 112.261 35.0728C113.176 36.0775 114.307 36.5799 115.652 36.5799C117.016 36.5799 118.146 36.0865 119.044 35.0997C119.959 34.1128 120.64 32.6146 121.089 30.6051C121.556 28.5955 121.789 26.0477 121.789 22.9616C121.789 18.3504 121.277 14.9234 120.255 12.6805C119.232 10.4198 117.698 9.28942 115.652 9.28942C114.307 9.28942 113.176 9.80078 112.261 10.8235C111.346 11.8462 110.655 13.3713 110.189 15.3988C109.722 17.4263 109.489 19.9472 109.489 22.9616Z" fill="white"/>
<path d="M135.488 42.6893V3.34149H143.051V42.6893H135.488Z" fill="white"/>
<path d="M163.64 9.28942C162.491 9.28942 161.486 9.63033 160.625 10.3121C159.764 10.994 159.046 11.9628 158.472 13.2188C157.916 14.4569 157.494 15.9192 157.207 17.6058C156.938 19.2923 156.804 21.1315 156.804 23.1231C156.804 26.0477 157.082 28.5238 157.638 30.5512C158.194 32.5608 159.01 34.0859 160.087 35.1266C161.164 36.1672 162.473 36.6876 164.016 36.6876C165.236 36.6876 166.394 36.4812 167.488 36.0686C168.583 35.6559 169.668 35.1625 170.745 34.5883V41.3167C169.614 41.9447 168.394 42.4202 167.085 42.7432C165.793 43.0661 164.402 43.2276 162.913 43.2276C159.952 43.2276 157.431 42.4471 155.35 40.8861C153.287 39.3072 151.708 37.0195 150.613 34.0231C149.519 31.0088 148.972 27.3575 148.972 23.0692C148.972 20.1267 149.277 17.4263 149.887 14.9682C150.515 12.4922 151.43 10.348 152.632 8.53584C153.834 6.70571 155.305 5.28825 157.046 4.28347C158.804 3.27869 160.814 2.7763 163.074 2.7763C164.653 2.7763 166.178 2.97367 167.65 3.36841C169.121 3.76314 170.538 4.37318 171.902 5.19854L169.749 11.4425C168.78 10.7786 167.802 10.2583 166.815 9.88152C165.829 9.48679 164.77 9.28942 163.64 9.28942Z" fill="white"/>
<path d="M194.456 42.6893H176.773V3.34149H194.456V9.77387H184.336V19.0322H193.756V25.4915H184.336V36.1224H194.456V42.6893Z" fill="white"/>
<path d="M200.296 3.34149H210.658C214.713 3.34149 217.745 4.13993 219.755 5.73681C221.782 7.31575 222.796 9.74695 222.796 13.0304C222.796 14.5735 222.581 15.955 222.15 17.1751C221.737 18.3773 221.136 19.3731 220.347 20.1626C219.557 20.952 218.606 21.4993 217.494 21.8043V22.0734C218.893 22.4502 220.033 23.0423 220.912 23.8497C221.809 24.6571 222.464 25.6799 222.877 26.9179C223.289 28.1559 223.496 29.6093 223.496 31.2779C223.496 33.6104 223.029 35.629 222.096 37.3335C221.181 39.038 219.853 40.3568 218.113 41.2898C216.373 42.2228 214.291 42.6893 211.869 42.6893H200.296V3.34149ZM207.859 19.2744H210.658C212.183 19.2744 213.313 18.8348 214.049 17.9556C214.803 17.0765 215.179 15.7846 215.179 14.0801C215.179 12.5908 214.794 11.4605 214.022 10.6889C213.251 9.89947 212.093 9.50473 210.55 9.50473H207.859V19.2744ZM207.859 25.2762V36.3377H211.277C212.784 36.3377 213.914 35.8712 214.668 34.9382C215.422 34.0052 215.798 32.5877 215.798 30.6858C215.798 29.5196 215.61 28.5417 215.233 27.7522C214.856 26.9448 214.309 26.3348 213.591 25.9221C212.892 25.4915 212.021 25.2762 210.981 25.2762H207.859Z" fill="white"/>
<path d="M256.142 22.9616C256.142 26.0836 255.855 28.9005 255.281 31.4125C254.707 33.9065 253.845 36.0327 252.697 37.791C251.549 39.5494 250.095 40.8951 248.337 41.8281C246.597 42.7611 244.551 43.2276 242.201 43.2276C239.832 43.2276 237.769 42.7611 236.011 41.8281C234.252 40.8771 232.799 39.5135 231.651 37.7372C230.502 35.9609 229.641 33.8258 229.067 31.3317C228.493 28.8377 228.206 26.0297 228.206 22.9078C228.206 18.4939 228.735 14.7888 229.793 11.7924C230.852 8.796 232.422 6.53525 234.503 5.01014C236.585 3.48503 239.15 2.72248 242.201 2.72248C245.377 2.72248 247.987 3.53886 250.033 5.17162C252.096 6.80439 253.63 9.13691 254.635 12.1692C255.64 15.1835 256.142 18.781 256.142 22.9616ZM236.037 22.9616C236.037 25.9759 236.271 28.4968 236.737 30.5243C237.204 32.5339 237.895 34.05 238.81 35.0728C239.725 36.0775 240.855 36.5799 242.201 36.5799C243.564 36.5799 244.695 36.0865 245.592 35.0997C246.507 34.1128 247.189 32.6146 247.637 30.6051C248.104 28.5955 248.337 26.0477 248.337 22.9616C248.337 18.3504 247.826 14.9234 246.803 12.6805C245.78 10.4198 244.246 9.28942 242.201 9.28942C240.855 9.28942 239.725 9.80078 238.81 10.8235C237.895 11.8462 237.204 13.3713 236.737 15.3988C236.271 17.4263 236.037 19.9472 236.037 22.9616Z" fill="white"/>
<path d="M284.536 42.6893H276.435L271.564 29.5285L266.45 42.6893H258.564L267.284 22.6924L259.291 3.34149H267.096L271.402 15.7487L275.654 3.34149H283.594L275.708 22.6386L284.536 42.6893Z" fill="white"/>
<path d="M13.2726 0.85H13.1226V1V33.7271V33.8771H13.2726H45.9997H46.1497V33.7271V1V0.85H45.9997H13.2726ZM36.4958 10.9203L36.3899 10.8068L36.2801 10.9166L27.5907 19.6059L22.9923 15.0075L22.8825 14.8977L22.7766 15.0112L19.9129 18.0794L19.8141 18.1853L19.9165 18.2878L27.4847 25.8559L27.5907 25.962L27.6968 25.8559L39.3558 14.1969L39.4583 14.0944L39.3594 13.9885L36.4958 10.9203ZM1 29.4862H0.85V29.6362V45.9997V46.1497H1H5.09088H5.24088V45.9997V33.8771H9.18177H9.33177V33.7271V29.6362V29.4862H9.18177H1ZM50.0906 29.4862H49.9406V29.6362V33.7271V33.8771H50.0906H54.0315V45.9997V46.1497H54.1815H58.2724H58.4224V45.9997V29.6362V29.4862H58.2724H50.0906ZM9.18177 37.6679H9.03177V37.818V41.9088V42.0588H9.18177H50.0906H50.2406V41.9088V37.818V37.6679H50.0906H9.18177ZM17.5135 5.24088H41.7588V29.4862H17.5135V5.24088Z" fill="white" stroke="#015FC7" stroke-width="0.3"/>
</svg>
